<svg xmlns="http://www.w3.org/2000/svg" xmlns:xlink="http://www.w3.org/1999/xlink" width="500" zoomAndPan="magnify" viewBox="0 0 375 374.999991" height="500" preserveAspectRatio="xMidYMid meet" version="1.0"><defs><g/><clipPath id="d5981f8f13"><path d="M 39 39.6875 L 336 39.6875 L 336 335.1875 L 39 335.1875 Z M 39 39.6875 " clip-rule="nonzero"/></clipPath><clipPath id="7f6866b503"><path d="M 287 200 L 365.105469 200 L 365.105469 214 L 287 214 Z M 287 200 " clip-rule="nonzero"/></clipPath><clipPath id="253dce2b22"><path d="M 9.605469 200 L 88 200 L 88 214 L 9.605469 214 Z M 9.605469 200 " clip-rule="nonzero"/></clipPath><clipPath id="aa4e43ca05"><path d="M 287 282 L 365.105469 282 L 365.105469 297 L 287 297 Z M 287 282 " clip-rule="nonzero"/></clipPath><clipPath id="a26e441be7"><path d="M 9.605469 282 L 88 282 L 88 297 L 9.605469 297 Z M 9.605469 282 " clip-rule="nonzero"/></clipPath></defs><g clip-path="url(#d5981f8f13)"><path fill="#ffffff" d="M 300.613281 282.671875 C 297.882812 285.914062 295.015625 289.039062 292.019531 292.03125 C 265.269531 318.78125 228.3125 335.332031 187.496094 335.332031 C 146.675781 335.332031 109.71875 318.78125 82.96875 292.03125 C 79.972656 289.039062 77.109375 285.914062 74.378906 282.671875 L 87.824219 282.671875 C 88.554688 283.441406 89.300781 284.199219 90.050781 284.949219 C 114.988281 309.886719 149.441406 325.3125 187.496094 325.3125 C 225.550781 325.3125 260.003906 309.886719 284.941406 284.949219 C 285.691406 284.199219 286.433594 283.441406 287.167969 282.671875 Z M 187.496094 39.6875 C 228.3125 39.6875 265.269531 56.230469 292.019531 82.980469 C 318.769531 109.730469 335.320312 146.691406 335.320312 187.507812 C 335.320312 196.359375 334.539062 205.023438 333.046875 213.445312 L 322.863281 213.445312 C 324.460938 205.042969 325.300781 196.375 325.300781 187.507812 C 325.300781 149.453125 309.875 115 284.941406 90.0625 C 260.003906 65.125 225.550781 49.703125 187.496094 49.703125 C 149.441406 49.703125 114.988281 65.125 90.050781 90.0625 C 65.113281 115 49.691406 149.453125 49.691406 187.507812 C 49.691406 196.375 50.53125 205.042969 52.128906 213.445312 L 41.941406 213.445312 C 40.453125 205.023438 39.671875 196.359375 39.671875 187.507812 C 39.671875 146.691406 56.21875 109.730469 82.96875 82.980469 C 109.71875 56.230469 146.675781 39.6875 187.496094 39.6875 Z M 187.496094 39.6875 " fill-opacity="1" fill-rule="nonzero"/></g><path fill="#ffffff" d="M 187.496094 85.191406 L 315.75 213.445312 L 287.078125 213.445312 L 187.496094 113.863281 L 87.910156 213.445312 L 59.242188 213.445312 Z M 187.496094 85.191406 " fill-opacity="1" fill-rule="evenodd"/><path fill="#ffffff" d="M 187.496094 119.960938 L 280.980469 213.445312 L 273.050781 213.445312 L 187.496094 127.890625 L 101.9375 213.445312 L 94.007812 213.445312 Z M 187.496094 119.960938 " fill-opacity="1" fill-rule="evenodd"/><g clip-path="url(#7f6866b503)"><path fill="#ffffff" d="M 365.449219 213.445312 L 287.078125 213.445312 L 287.078125 200.027344 Z M 365.449219 213.445312 " fill-opacity="1" fill-rule="evenodd"/></g><path fill="#ffffff" d="M 174.457031 163.578125 L 186.351562 163.578125 L 186.351562 175.472656 L 174.457031 175.472656 Z M 174.457031 163.578125 " fill-opacity="1" fill-rule="evenodd"/><path fill="#ffffff" d="M 188.636719 163.578125 L 200.53125 163.578125 L 200.53125 175.472656 L 188.636719 175.472656 Z M 188.636719 163.578125 " fill-opacity="1" fill-rule="evenodd"/><path fill="#ffffff" d="M 174.457031 177.605469 L 186.351562 177.605469 L 186.351562 189.5 L 174.457031 189.5 Z M 174.457031 177.605469 " fill-opacity="1" fill-rule="evenodd"/><path fill="#ffffff" d="M 188.636719 177.605469 L 200.53125 177.605469 L 200.53125 189.5 L 188.636719 189.5 Z M 188.636719 177.605469 " fill-opacity="1" fill-rule="evenodd"/><g clip-path="url(#253dce2b22)"><path fill="#ffffff" d="M 9.542969 213.445312 L 87.910156 213.445312 L 87.910156 200.027344 Z M 9.542969 213.445312 " fill-opacity="1" fill-rule="evenodd"/></g><path fill="#ffffff" d="M 52.234375 108.859375 C 52.234375 108.859375 56.835938 124.363281 61.160156 131.789062 C 61.160156 131.789062 61.160156 133.101562 59.65625 131.789062 C 58.152344 130.472656 60.21875 133.101562 58.152344 131.601562 C 58.152344 131.601562 60.597656 139.585938 65.574219 145.128906 C 65.574219 145.128906 64.449219 146.257812 63.601562 145.128906 C 62.757812 144.003906 64.164062 147.011719 62.570312 145.601562 C 60.972656 144.191406 63.414062 149.265625 61.816406 147.105469 C 60.21875 144.941406 60.597656 147.011719 59.84375 146.070312 C 59.84375 146.070312 63.792969 156.5 68.960938 162.042969 C 68.960938 162.042969 68.585938 164.488281 66.890625 162.417969 C 65.199219 160.351562 68.300781 166.269531 65.199219 162.980469 C 62.097656 159.695312 64.261719 164.484375 62.289062 161.949219 C 60.316406 159.414062 62.289062 164.675781 60.972656 163.078125 C 59.65625 161.480469 67.738281 175.761719 73.28125 181.683594 C 73.28125 181.683594 73.84375 183.9375 71.402344 181.496094 C 68.957031 179.050781 71.964844 184.59375 69.144531 181.683594 C 66.328125 178.769531 70.652344 187.414062 67.453125 182.058594 C 64.261719 176.703125 68.207031 186.101562 64.824219 181.496094 C 61.441406 176.890625 63.886719 183.75 62.472656 181.023438 C 61.066406 178.300781 73.09375 197.65625 78.542969 203.390625 C 78.542969 203.390625 78.828125 206.300781 75.820312 203.484375 C 72.8125 200.660156 75.160156 206.207031 72.625 203.015625 C 70.085938 199.816406 72.8125 208.085938 69.898438 203.953125 C 66.988281 199.816406 69.992188 209.589844 67.644531 205.457031 C 65.292969 201.320312 67.738281 207.050781 65.859375 204.890625 C 63.980469 202.734375 63.507812 206.769531 62.472656 205.738281 C 61.441406 204.703125 62.851562 209.871094 61.066406 207.617188 C 59.28125 205.363281 59.5625 208.273438 58.714844 207.148438 C 57.871094 206.019531 55.242188 208.085938 55.242188 208.085938 L 49.226562 208.085938 C 49.226562 208.085938 46.597656 206.019531 45.75 207.148438 C 44.902344 208.273438 45.1875 205.363281 43.402344 207.617188 C 41.617188 209.871094 43.023438 204.703125 41.992188 205.738281 C 40.957031 206.769531 40.488281 202.734375 38.609375 204.890625 C 36.726562 207.050781 39.171875 201.320312 36.824219 205.457031 C 34.472656 209.589844 37.480469 199.816406 34.570312 203.953125 C 31.65625 208.085938 34.378906 199.816406 31.84375 203.015625 C 29.308594 206.207031 31.65625 200.660156 28.648438 203.484375 C 25.640625 206.300781 25.921875 203.390625 25.921875 203.390625 C 31.375 197.65625 43.402344 178.300781 41.992188 181.023438 C 40.582031 183.75 43.023438 176.890625 39.640625 181.496094 C 36.257812 186.101562 40.207031 176.703125 37.011719 182.058594 C 33.816406 187.414062 38.140625 178.769531 35.320312 181.683594 C 32.503906 184.59375 35.507812 179.050781 33.066406 181.496094 C 30.621094 183.9375 31.183594 181.683594 31.183594 181.683594 C 36.726562 175.761719 44.808594 161.480469 43.496094 163.078125 C 42.179688 164.675781 44.152344 159.414062 42.179688 161.949219 C 40.207031 164.484375 42.367188 159.695312 39.265625 162.980469 C 36.164062 166.269531 39.265625 160.351562 37.574219 162.417969 C 35.882812 164.484375 35.507812 162.042969 35.507812 162.042969 C 40.675781 156.5 44.625 146.070312 44.625 146.070312 C 43.871094 147.011719 44.25 144.941406 42.648438 147.105469 C 41.054688 149.265625 43.496094 144.191406 41.898438 145.601562 C 40.300781 147.011719 41.710938 144.003906 40.863281 145.128906 C 40.019531 146.257812 38.890625 145.128906 38.890625 145.128906 C 43.871094 139.585938 46.316406 131.601562 46.316406 131.601562 C 44.25 133.101562 46.316406 130.472656 44.8125 131.789062 C 43.308594 133.101562 43.308594 131.789062 43.308594 131.789062 C 47.628906 124.363281 52.234375 108.859375 52.234375 108.859375 " fill-opacity="1" fill-rule="evenodd"/><path fill="#ffffff" d="M 80.046875 129.082031 C 80.046875 129.082031 83.371094 140.265625 86.484375 145.621094 C 86.484375 145.621094 86.484375 146.570312 85.402344 145.621094 C 84.316406 144.671875 85.808594 146.570312 84.316406 145.484375 C 84.316406 145.484375 86.082031 151.246094 89.671875 155.246094 C 89.671875 155.246094 88.859375 156.058594 88.25 155.246094 C 87.640625 154.429688 88.65625 156.601562 87.503906 155.585938 C 86.351562 154.566406 88.113281 158.226562 86.960938 156.667969 C 85.808594 155.109375 86.078125 156.601562 85.539062 155.921875 C 85.539062 155.921875 88.382812 163.445312 92.113281 167.445312 C 92.113281 167.445312 91.839844 169.207031 90.621094 167.714844 C 89.402344 166.222656 91.636719 170.496094 89.402344 168.121094 C 87.164062 165.75 88.722656 169.207031 87.300781 167.375 C 85.875 165.546875 87.300781 169.339844 86.351562 168.191406 C 85.402344 167.035156 91.230469 177.339844 95.230469 181.609375 C 95.230469 181.609375 95.636719 183.234375 93.875 181.472656 C 92.113281 179.710938 94.28125 183.710938 92.246094 181.609375 C 90.214844 179.507812 93.332031 185.742188 91.027344 181.882812 C 88.722656 178.015625 91.570312 184.792969 89.128906 181.472656 C 86.691406 178.152344 88.453125 183.101562 87.433594 181.132812 C 86.417969 179.167969 95.09375 193.128906 99.027344 197.265625 C 99.027344 197.265625 99.230469 199.363281 97.058594 197.332031 C 94.890625 195.296875 96.585938 199.300781 94.757812 196.992188 C 92.925781 194.6875 94.890625 200.652344 92.789062 197.671875 C 90.691406 194.6875 92.859375 201.738281 91.164062 198.753906 C 89.46875 195.773438 91.234375 199.90625 89.875 198.347656 C 88.519531 196.789062 88.183594 199.703125 87.433594 198.960938 C 86.6875 198.210938 87.707031 201.941406 86.417969 200.3125 C 85.132812 198.6875 85.332031 200.789062 84.726562 199.972656 C 84.113281 199.160156 82.21875 200.648438 82.21875 200.648438 L 77.878906 200.648438 C 77.878906 200.648438 75.984375 199.160156 75.371094 199.972656 C 74.761719 200.789062 74.964844 198.683594 73.679688 200.3125 C 72.390625 201.941406 73.40625 198.210938 72.660156 198.960938 C 71.914062 199.703125 71.578125 196.789062 70.21875 198.347656 C 68.863281 199.90625 70.628906 195.773438 68.933594 198.753906 C 67.238281 201.738281 69.40625 194.6875 67.308594 197.671875 C 65.207031 200.652344 67.171875 194.6875 65.339844 196.992188 C 63.511719 199.300781 65.207031 195.296875 63.035156 197.332031 C 60.867188 199.363281 61.070312 197.265625 61.070312 197.265625 C 65 193.128906 73.675781 179.167969 72.660156 181.132812 C 71.644531 183.101562 73.40625 178.152344 70.964844 181.472656 C 68.523438 184.792969 71.375 178.015625 69.070312 181.882812 C 66.765625 185.742188 69.882812 179.507812 67.851562 181.609375 C 65.816406 183.710938 67.984375 179.710938 66.222656 181.472656 C 64.460938 183.234375 64.867188 181.609375 64.867188 181.609375 C 68.863281 177.339844 74.695312 167.035156 73.746094 168.191406 C 72.796875 169.339844 74.21875 165.546875 72.796875 167.375 C 71.375 169.207031 72.933594 165.75 70.695312 168.121094 C 68.457031 170.496094 70.695312 166.222656 69.476562 167.714844 C 68.253906 169.207031 67.984375 167.445312 67.984375 167.445312 C 71.710938 163.445312 74.558594 155.921875 74.558594 155.921875 C 74.015625 156.601562 74.289062 155.105469 73.136719 156.667969 C 71.980469 158.226562 73.746094 154.566406 72.59375 155.585938 C 71.441406 156.601562 72.457031 154.429688 71.847656 155.246094 C 71.238281 156.058594 70.425781 155.246094 70.425781 155.246094 C 74.015625 151.246094 75.777344 145.484375 75.777344 145.484375 C 74.285156 146.570312 75.777344 144.671875 74.691406 145.621094 C 73.609375 146.570312 73.609375 145.621094 73.609375 145.621094 C 76.730469 140.265625 80.046875 129.082031 80.046875 129.082031 " fill-opacity="1" fill-rule="evenodd"/><path fill="#ffffff" d="M 98.636719 121.140625 C 98.636719 121.140625 101.351562 130.292969 103.90625 134.675781 C 103.90625 134.675781 103.90625 135.449219 103.015625 134.675781 C 102.128906 133.898438 103.351562 135.449219 102.128906 134.5625 C 102.128906 134.5625 103.570312 139.277344 106.511719 142.554688 C 106.511719 142.554688 105.847656 143.21875 105.347656 142.554688 C 104.84375 141.886719 105.679688 143.660156 104.734375 142.832031 C 103.792969 141.996094 105.234375 144.992188 104.292969 143.714844 C 103.351562 142.441406 103.570312 143.660156 103.128906 143.109375 C 103.128906 143.109375 105.457031 149.265625 108.507812 152.535156 C 108.507812 152.535156 108.289062 153.980469 107.289062 152.757812 C 106.289062 151.539062 108.121094 155.035156 106.289062 153.09375 C 104.457031 151.152344 105.734375 153.980469 104.570312 152.484375 C 103.40625 150.988281 104.570312 154.089844 103.792969 153.148438 C 103.015625 152.207031 107.789062 160.640625 111.0625 164.136719 C 111.0625 164.136719 111.394531 165.464844 109.949219 164.023438 C 108.507812 162.582031 110.28125 165.855469 108.617188 164.136719 C 106.957031 162.414062 109.507812 167.519531 107.621094 164.355469 C 105.734375 161.191406 108.066406 166.742188 106.066406 164.023438 C 104.070312 161.304688 105.515625 165.355469 104.679688 163.746094 C 103.847656 162.136719 110.949219 173.5625 114.167969 176.949219 C 114.167969 176.949219 114.332031 178.667969 112.558594 177.003906 C 110.78125 175.339844 112.167969 178.613281 110.671875 176.726562 C 109.175781 174.839844 110.78125 179.722656 109.0625 177.28125 C 107.34375 174.839844 109.121094 180.609375 107.734375 178.167969 C 106.34375 175.726562 107.789062 179.113281 106.675781 177.835938 C 105.570312 176.558594 105.292969 178.945312 104.679688 178.332031 C 104.070312 177.722656 104.902344 180.777344 103.847656 179.441406 C 102.792969 178.113281 102.960938 179.832031 102.460938 179.167969 C 101.964844 178.5 100.410156 179.71875 100.410156 179.71875 L 96.859375 179.71875 C 96.859375 179.71875 95.304688 178.5 94.808594 179.167969 C 94.308594 179.832031 94.472656 178.113281 93.421875 179.441406 C 92.367188 180.777344 93.199219 177.722656 92.589844 178.332031 C 91.976562 178.945312 91.703125 176.558594 90.589844 177.835938 C 89.480469 179.113281 90.921875 175.726562 89.539062 178.167969 C 88.148438 180.609375 89.925781 174.839844 88.203125 177.28125 C 86.484375 179.722656 88.09375 174.839844 86.597656 176.726562 C 85.101562 178.613281 86.484375 175.339844 84.710938 177.003906 C 82.933594 178.667969 83.101562 176.949219 83.101562 176.949219 C 86.320312 173.5625 93.421875 162.136719 92.589844 163.746094 C 91.753906 165.355469 93.199219 161.304688 91.203125 164.023438 C 89.203125 166.738281 91.535156 161.191406 89.648438 164.355469 C 87.761719 167.519531 90.3125 162.414062 88.648438 164.136719 C 86.984375 165.855469 88.761719 162.582031 87.320312 164.023438 C 85.875 165.464844 86.210938 164.136719 86.210938 164.136719 C 89.484375 160.640625 94.253906 152.207031 93.476562 153.148438 C 92.699219 154.089844 93.863281 150.988281 92.699219 152.484375 C 91.535156 153.980469 92.808594 151.152344 90.980469 153.09375 C 89.148438 155.035156 90.980469 151.539062 89.980469 152.757812 C 88.984375 153.980469 88.761719 152.535156 88.761719 152.535156 C 91.8125 149.265625 94.140625 143.109375 94.140625 143.109375 C 93.699219 143.660156 93.917969 142.441406 92.976562 143.714844 C 92.035156 144.992188 93.476562 141.996094 92.53125 142.832031 C 91.59375 143.660156 92.421875 141.886719 91.921875 142.554688 C 91.425781 143.21875 90.757812 142.554688 90.757812 142.554688 C 93.699219 139.277344 95.140625 134.5625 95.140625 134.5625 C 93.917969 135.449219 95.140625 133.898438 94.253906 134.675781 C 93.367188 135.449219 93.367188 134.675781 93.367188 134.675781 C 95.917969 130.292969 98.636719 121.140625 98.636719 121.140625 " fill-opacity="1" fill-rule="evenodd"/><path fill="#ffffff" d="M 322.757812 108.859375 C 322.757812 108.859375 318.15625 124.363281 313.832031 131.789062 C 313.832031 131.789062 313.832031 133.101562 315.335938 131.789062 C 316.839844 130.472656 314.773438 133.101562 316.839844 131.601562 C 316.839844 131.601562 314.394531 139.585938 309.417969 145.128906 C 309.417969 145.128906 310.542969 146.257812 311.390625 145.128906 C 312.234375 144.003906 310.824219 147.011719 312.421875 145.601562 C 314.019531 144.191406 311.578125 149.265625 313.175781 147.105469 C 314.773438 144.941406 314.394531 147.011719 315.148438 146.070312 C 315.148438 146.070312 311.199219 156.5 306.03125 162.042969 C 306.03125 162.042969 306.410156 164.488281 308.097656 162.417969 C 309.792969 160.351562 306.691406 166.269531 309.792969 162.980469 C 312.890625 159.695312 310.730469 164.484375 312.703125 161.949219 C 314.675781 159.414062 312.703125 164.675781 314.019531 163.078125 C 315.335938 161.480469 307.253906 175.761719 301.710938 181.683594 C 301.710938 181.683594 301.148438 183.9375 303.589844 181.496094 C 306.03125 179.050781 303.027344 184.59375 305.847656 181.683594 C 308.664062 178.769531 304.339844 187.414062 307.535156 182.058594 C 310.730469 176.703125 306.785156 186.101562 310.167969 181.496094 C 313.550781 176.890625 311.105469 183.75 312.515625 181.023438 C 313.925781 178.300781 301.898438 197.65625 296.449219 203.390625 C 296.449219 203.390625 296.164062 206.300781 299.171875 203.484375 C 302.179688 200.660156 299.832031 206.207031 302.367188 203.015625 C 304.902344 199.816406 302.179688 208.085938 305.089844 203.953125 C 308.003906 199.816406 305 209.589844 307.347656 205.457031 C 309.699219 201.320312 307.253906 207.050781 309.132812 204.890625 C 311.015625 202.734375 311.484375 206.769531 312.515625 205.738281 C 313.550781 204.703125 312.140625 209.871094 313.925781 207.617188 C 315.710938 205.363281 315.429688 208.273438 316.273438 207.148438 C 317.121094 206.019531 319.75 208.085938 319.75 208.085938 L 325.765625 208.085938 C 325.765625 208.085938 328.394531 206.019531 329.242188 207.148438 C 330.085938 208.273438 329.804688 205.363281 331.589844 207.617188 C 333.375 209.871094 331.96875 204.703125 333 205.738281 C 334.03125 206.769531 334.503906 202.734375 336.382812 204.890625 C 338.261719 207.050781 335.820312 201.320312 338.167969 205.457031 C 340.519531 209.589844 337.511719 199.816406 340.421875 203.953125 C 343.335938 208.085938 340.613281 199.816406 343.148438 203.015625 C 345.683594 206.207031 343.335938 200.660156 346.34375 203.484375 C 349.351562 206.300781 349.066406 203.390625 349.066406 203.390625 C 343.621094 197.65625 331.589844 178.300781 333 181.023438 C 334.410156 183.75 331.964844 176.890625 335.351562 181.496094 C 338.730469 186.101562 334.785156 176.703125 337.980469 182.058594 C 341.175781 187.414062 336.851562 178.769531 339.671875 181.683594 C 342.488281 184.59375 339.480469 179.050781 341.925781 181.496094 C 344.371094 183.9375 343.808594 181.683594 343.808594 181.683594 C 338.261719 175.761719 330.179688 161.480469 331.496094 163.078125 C 332.8125 164.675781 330.835938 159.414062 332.8125 161.949219 C 334.785156 164.484375 332.621094 159.695312 335.726562 162.980469 C 338.824219 166.269531 335.726562 160.351562 337.417969 162.417969 C 339.109375 164.484375 339.484375 162.042969 339.484375 162.042969 C 334.316406 156.5 330.367188 146.070312 330.367188 146.070312 C 331.121094 147.011719 330.742188 144.941406 332.339844 147.105469 C 333.941406 149.265625 331.496094 144.191406 333.09375 145.601562 C 334.691406 147.011719 333.28125 144.003906 334.128906 145.128906 C 334.972656 146.257812 336.101562 145.128906 336.101562 145.128906 C 331.121094 139.585938 328.675781 131.601562 328.675781 131.601562 C 330.746094 133.101562 328.675781 130.472656 330.179688 131.789062 C 331.683594 133.101562 331.683594 131.789062 331.683594 131.789062 C 327.363281 124.363281 322.757812 108.859375 322.757812 108.859375 " fill-opacity="1" fill-rule="evenodd"/><path fill="#ffffff" d="M 294.941406 129.082031 C 294.941406 129.082031 291.621094 140.265625 288.503906 145.621094 C 288.503906 145.621094 288.503906 146.570312 289.589844 145.621094 C 290.671875 144.671875 289.183594 146.570312 290.671875 145.484375 C 290.671875 145.484375 288.910156 151.246094 285.320312 155.246094 C 285.320312 155.246094 286.132812 156.058594 286.742188 155.246094 C 287.351562 154.429688 286.335938 156.601562 287.488281 155.585938 C 288.636719 154.566406 286.875 158.226562 288.03125 156.667969 C 289.179688 155.109375 288.910156 156.601562 289.453125 155.921875 C 289.453125 155.921875 286.605469 163.445312 282.878906 167.445312 C 282.878906 167.445312 283.148438 169.207031 284.371094 167.714844 C 285.589844 166.222656 283.351562 170.496094 285.589844 168.121094 C 287.828125 165.75 286.269531 169.207031 287.691406 167.375 C 289.113281 165.546875 287.691406 169.339844 288.640625 168.191406 C 289.589844 167.035156 283.757812 177.339844 279.761719 181.609375 C 279.761719 181.609375 279.355469 183.234375 281.117188 181.472656 C 282.878906 179.710938 280.710938 183.710938 282.742188 181.609375 C 284.773438 179.507812 281.660156 185.742188 283.964844 181.882812 C 286.269531 178.015625 283.421875 184.792969 285.859375 181.472656 C 288.300781 178.152344 286.539062 183.101562 287.554688 181.132812 C 288.570312 179.167969 279.894531 193.128906 275.964844 197.265625 C 275.964844 197.265625 275.761719 199.363281 277.929688 197.332031 C 280.101562 195.296875 278.40625 199.300781 280.234375 196.992188 C 282.0625 194.6875 280.101562 200.652344 282.203125 197.671875 C 284.300781 194.6875 282.132812 201.738281 283.828125 198.753906 C 285.519531 195.773438 283.757812 199.90625 285.113281 198.347656 C 286.472656 196.789062 286.808594 199.703125 287.554688 198.960938 C 288.300781 198.210938 287.28125 201.941406 288.570312 200.3125 C 289.859375 198.6875 289.65625 200.789062 290.265625 199.972656 C 290.878906 199.160156 292.773438 200.648438 292.773438 200.648438 L 297.113281 200.648438 C 297.113281 200.648438 299.007812 199.160156 299.617188 199.972656 C 300.226562 200.789062 300.023438 198.683594 301.3125 200.3125 C 302.601562 201.941406 301.582031 198.210938 302.328125 198.960938 C 303.074219 199.703125 303.414062 196.789062 304.769531 198.347656 C 306.125 199.90625 304.363281 195.773438 306.058594 198.753906 C 307.753906 201.734375 305.582031 194.6875 307.683594 197.671875 C 309.785156 200.652344 307.820312 194.6875 309.648438 196.992188 C 311.480469 199.300781 309.785156 195.296875 311.953125 197.332031 C 314.125 199.363281 313.921875 197.265625 313.921875 197.265625 C 309.988281 193.128906 301.3125 179.167969 302.328125 181.132812 C 303.347656 183.101562 301.585938 178.152344 304.023438 181.472656 C 306.464844 184.792969 303.617188 178.015625 305.921875 181.882812 C 308.226562 185.742188 305.109375 179.507812 307.140625 181.609375 C 309.175781 183.710938 307.007812 179.710938 308.769531 181.472656 C 310.53125 183.234375 310.125 181.609375 310.125 181.609375 C 306.125 177.339844 300.296875 167.035156 301.246094 168.191406 C 302.195312 169.339844 300.769531 165.546875 302.195312 167.375 C 303.617188 169.207031 302.058594 165.75 304.296875 168.121094 C 306.53125 170.496094 304.296875 166.222656 305.511719 167.714844 C 306.734375 169.207031 307.007812 167.445312 307.007812 167.445312 C 303.277344 163.445312 300.433594 155.921875 300.433594 155.921875 C 300.972656 156.601562 300.703125 155.105469 301.855469 156.667969 C 303.007812 158.226562 301.246094 154.566406 302.398438 155.585938 C 303.550781 156.601562 302.535156 154.429688 303.144531 155.246094 C 303.753906 156.058594 304.566406 155.246094 304.566406 155.246094 C 300.972656 151.246094 299.210938 145.484375 299.210938 145.484375 C 300.703125 146.570312 299.210938 144.671875 300.296875 145.621094 C 301.378906 146.570312 301.378906 145.621094 301.378906 145.621094 C 298.261719 140.265625 294.941406 129.082031 294.941406 129.082031 " fill-opacity="1" fill-rule="evenodd"/><path fill="#ffffff" d="M 276.355469 121.140625 C 276.355469 121.140625 273.640625 130.292969 271.085938 134.675781 C 271.085938 134.675781 271.085938 135.449219 271.976562 134.675781 C 272.863281 133.898438 271.640625 135.449219 272.863281 134.5625 C 272.863281 134.5625 271.421875 139.277344 268.480469 142.554688 C 268.480469 142.554688 269.144531 143.21875 269.644531 142.554688 C 270.144531 141.886719 269.3125 143.660156 270.253906 142.832031 C 271.199219 141.996094 269.757812 144.992188 270.699219 143.714844 C 271.640625 142.441406 271.421875 143.660156 271.863281 143.109375 C 271.863281 143.109375 269.535156 149.265625 266.484375 152.535156 C 266.484375 152.535156 266.703125 153.980469 267.703125 152.757812 C 268.703125 151.539062 266.871094 155.035156 268.703125 153.09375 C 270.53125 151.152344 269.253906 153.980469 270.421875 152.484375 C 271.585938 150.988281 270.421875 154.089844 271.199219 153.148438 C 271.976562 152.207031 267.203125 160.640625 263.929688 164.136719 C 263.929688 164.136719 263.597656 165.464844 265.039062 164.023438 C 266.484375 162.582031 264.707031 165.855469 266.371094 164.136719 C 268.035156 162.414062 265.484375 167.519531 267.371094 164.355469 C 269.253906 161.191406 266.925781 166.742188 268.921875 164.023438 C 270.917969 161.304688 269.476562 165.355469 270.3125 163.746094 C 271.144531 162.136719 264.042969 173.5625 260.824219 176.949219 C 260.824219 176.949219 260.660156 178.667969 262.433594 177.003906 C 264.207031 175.339844 262.820312 178.613281 264.320312 176.726562 C 265.816406 174.839844 264.207031 179.722656 265.929688 177.28125 C 267.648438 174.839844 265.875 180.609375 267.257812 178.167969 C 268.644531 175.726562 267.203125 179.113281 268.3125 177.835938 C 269.421875 176.558594 269.699219 178.945312 270.3125 178.332031 C 270.917969 177.722656 270.089844 180.777344 271.144531 179.441406 C 272.195312 178.113281 272.03125 179.832031 272.527344 179.167969 C 273.027344 178.5 274.578125 179.71875 274.578125 179.71875 L 278.128906 179.71875 C 278.128906 179.71875 279.683594 178.5 280.183594 179.167969 C 280.683594 179.832031 280.519531 178.113281 281.570312 179.441406 C 282.625 180.777344 281.792969 177.722656 282.402344 178.332031 C 283.011719 178.945312 283.289062 176.558594 284.398438 177.835938 C 285.511719 179.113281 284.066406 175.726562 285.453125 178.167969 C 286.839844 180.609375 285.066406 174.839844 286.785156 177.28125 C 288.503906 179.722656 286.898438 174.839844 288.394531 176.726562 C 289.890625 178.613281 288.503906 175.339844 290.28125 177.003906 C 292.054688 178.667969 291.890625 176.949219 291.890625 176.949219 C 288.671875 173.5625 281.570312 162.136719 282.402344 163.746094 C 283.234375 165.355469 281.792969 161.304688 283.789062 164.023438 C 285.785156 166.738281 283.457031 161.191406 285.34375 164.355469 C 287.226562 167.519531 284.675781 162.414062 286.34375 164.136719 C 288.003906 165.855469 286.230469 162.582031 287.671875 164.023438 C 289.113281 165.464844 288.78125 164.136719 288.78125 164.136719 C 285.507812 160.640625 280.738281 152.207031 281.515625 153.148438 C 282.292969 154.089844 281.128906 150.988281 282.292969 152.484375 C 283.457031 153.980469 282.183594 151.152344 284.011719 153.09375 C 285.84375 155.035156 284.011719 151.539062 285.011719 152.757812 C 286.007812 153.980469 286.230469 152.535156 286.230469 152.535156 C 283.179688 149.265625 280.847656 143.109375 280.847656 143.109375 C 281.292969 143.660156 281.070312 142.441406 282.011719 143.714844 C 282.957031 144.992188 281.515625 141.996094 282.457031 142.832031 C 283.398438 143.660156 282.570312 141.886719 283.066406 142.554688 C 283.566406 143.21875 284.234375 142.554688 284.234375 142.554688 C 281.292969 139.277344 279.847656 134.5625 279.847656 134.5625 C 281.070312 135.449219 279.847656 133.898438 280.738281 134.675781 C 281.625 135.449219 281.625 134.675781 281.625 134.675781 C 279.074219 130.292969 276.355469 121.140625 276.355469 121.140625 " fill-opacity="1" fill-rule="evenodd"/><g clip-path="url(#aa4e43ca05)"><path fill="#ffffff" d="M 365.449219 282.671875 L 287.078125 282.671875 L 287.078125 296.089844 Z M 365.449219 282.671875 " fill-opacity="1" fill-rule="evenodd"/></g><g clip-path="url(#a26e441be7)"><path fill="#ffffff" d="M 9.542969 282.671875 L 87.910156 282.671875 L 87.910156 296.089844 Z M 9.542969 282.671875 " fill-opacity="1" fill-rule="evenodd"/></g><g fill="#ffffff" fill-opacity="1"><g transform="translate(3.797966, 275.317179)"><g><path d="M 3.90625 -52.8125 L 21.640625 -52.8125 C 26.296875 -52.8125 29.773438 -51.492188 32.078125 -48.859375 C 34.378906 -46.234375 35.53125 -42.441406 35.53125 -37.484375 C 35.53125 -31.835938 34.191406 -27.914062 31.515625 -25.71875 C 28.847656 -23.53125 25.101562 -22.4375 20.28125 -22.4375 L 15.578125 -22.4375 L 15.578125 0 L 3.90625 0 Z M 19.5 -30.578125 C 21.539062 -30.578125 22.894531 -31.117188 23.5625 -32.203125 C 24.238281 -33.296875 24.578125 -35.125 24.578125 -37.6875 C 24.578125 -40.03125 24.25 -41.765625 23.59375 -42.890625 C 22.945312 -44.023438 21.5625 -44.59375 19.4375 -44.59375 L 15.578125 -44.59375 L 15.578125 -30.578125 Z M 19.5 -30.578125 "/></g></g></g><g fill="#ffffff" fill-opacity="1"><g transform="translate(42.979092, 275.317179)"><g><path d="M 3.90625 -52.8125 L 27.640625 -52.8125 L 27.640625 -44.859375 L 15.578125 -44.859375 L 15.578125 -31.75 L 24.78125 -31.75 L 24.78125 -23.671875 L 15.578125 -23.671875 L 15.578125 -7.890625 L 27.78125 -7.890625 L 27.78125 0 L 3.90625 0 Z M 3.90625 -52.8125 "/></g></g></g><g fill="#ffffff" fill-opacity="1"><g transform="translate(74.076368, 275.317179)"><g><path d="M 3.90625 -52.8125 L 12.125 -52.8125 L 22.953125 -27.390625 L 22.953125 -52.8125 L 32.609375 -52.8125 L 32.609375 0 L 24.71875 0 L 13.890625 -27.390625 L 13.890625 0 L 3.90625 0 Z M 3.90625 -52.8125 "/></g></g></g><g fill="#ffffff" fill-opacity="1"><g transform="translate(112.605577, 275.317179)"><g><path d="M 3.90625 -52.8125 L 12.125 -52.8125 L 22.953125 -27.390625 L 22.953125 -52.8125 L 32.609375 -52.8125 L 32.609375 0 L 24.71875 0 L 13.890625 -27.390625 L 13.890625 0 L 3.90625 0 Z M 3.90625 -52.8125 "/></g></g></g><g fill="#ffffff" fill-opacity="1"><g transform="translate(151.134785, 275.317179)"><g/></g></g><g fill="#ffffff" fill-opacity="1"><g transform="translate(169.78032, 275.317179)"><g><path d="M 1.765625 -52.8125 L 11.671875 -52.8125 L 14.796875 -22.03125 L 18.78125 -52.75 L 26.53125 -52.75 L 30.703125 -22.234375 L 33.90625 -52.8125 L 43.6875 -52.8125 L 37.359375 0 L 27.1875 0 L 22.6875 -31.890625 L 18.453125 0 L 8.15625 0 Z M 1.765625 -52.8125 "/></g></g></g><g fill="#ffffff" fill-opacity="1"><g transform="translate(217.1757, 275.317179)"><g><path d="M 19.046875 0.78125 C 13.347656 0.78125 9.28125 -0.679688 6.84375 -3.609375 C 4.40625 -6.546875 3.1875 -10.882812 3.1875 -16.625 L 3.1875 -36.25 C 3.1875 -41.988281 4.40625 -46.300781 6.84375 -49.1875 C 9.28125 -52.082031 13.347656 -53.53125 19.046875 -53.53125 C 24.773438 -53.53125 28.867188 -52.070312 31.328125 -49.15625 C 33.785156 -46.25 35.015625 -41.945312 35.015625 -36.25 L 35.015625 -16.625 C 35.015625 -10.882812 33.785156 -6.546875 31.328125 -3.609375 C 28.867188 -0.679688 24.773438 0.78125 19.046875 0.78125 Z M 19.046875 -7.5 C 20.691406 -7.5 21.773438 -8.050781 22.296875 -9.15625 C 22.816406 -10.269531 23.078125 -11.78125 23.078125 -13.6875 L 23.078125 -39.125 C 23.078125 -41.082031 22.816406 -42.601562 22.296875 -43.6875 C 21.773438 -44.769531 20.691406 -45.3125 19.046875 -45.3125 C 17.472656 -45.3125 16.425781 -44.753906 15.90625 -43.640625 C 15.382812 -42.535156 15.125 -41.03125 15.125 -39.125 L 15.125 -13.6875 C 15.125 -11.78125 15.363281 -10.269531 15.84375 -9.15625 C 16.320312 -8.050781 17.390625 -7.5 19.046875 -7.5 Z M 19.046875 -7.5 "/></g></g></g><g fill="#ffffff" fill-opacity="1"><g transform="translate(257.334702, 275.317179)"><g><path d="M 19.046875 0.78125 C 13.347656 0.78125 9.28125 -0.679688 6.84375 -3.609375 C 4.40625 -6.546875 3.1875 -10.882812 3.1875 -16.625 L 3.1875 -36.25 C 3.1875 -41.988281 4.40625 -46.300781 6.84375 -49.1875 C 9.28125 -52.082031 13.347656 -53.53125 19.046875 -53.53125 C 24.773438 -53.53125 28.867188 -52.070312 31.328125 -49.15625 C 33.785156 -46.25 35.015625 -41.945312 35.015625 -36.25 L 35.015625 -16.625 C 35.015625 -10.882812 33.785156 -6.546875 31.328125 -3.609375 C 28.867188 -0.679688 24.773438 0.78125 19.046875 0.78125 Z M 19.046875 -7.5 C 20.691406 -7.5 21.773438 -8.050781 22.296875 -9.15625 C 22.816406 -10.269531 23.078125 -11.78125 23.078125 -13.6875 L 23.078125 -39.125 C 23.078125 -41.082031 22.816406 -42.601562 22.296875 -43.6875 C 21.773438 -44.769531 20.691406 -45.3125 19.046875 -45.3125 C 17.472656 -45.3125 16.425781 -44.753906 15.90625 -43.640625 C 15.382812 -42.535156 15.125 -41.03125 15.125 -39.125 L 15.125 -13.6875 C 15.125 -11.78125 15.363281 -10.269531 15.84375 -9.15625 C 16.320312 -8.050781 17.390625 -7.5 19.046875 -7.5 Z M 19.046875 -7.5 "/></g></g></g><g fill="#ffffff" fill-opacity="1"><g transform="translate(297.493704, 275.317179)"><g><path d="M 3.90625 -52.8125 L 17.28125 -52.8125 C 21.84375 -52.8125 25.40625 -52.242188 27.96875 -51.109375 C 30.53125 -49.984375 32.34375 -48.210938 33.40625 -45.796875 C 34.476562 -43.390625 35.015625 -40.164062 35.015625 -36.125 L 35.015625 -16.953125 C 35.015625 -12.867188 34.476562 -9.609375 33.40625 -7.171875 C 32.34375 -4.734375 30.539062 -2.925781 28 -1.75 C 25.457031 -0.582031 21.925781 0 17.40625 0 L 3.90625 0 Z M 17.40625 -8.078125 C 19.101562 -8.078125 20.351562 -8.328125 21.15625 -8.828125 C 21.957031 -9.328125 22.46875 -10.046875 22.6875 -10.984375 C 22.90625 -11.921875 23.015625 -13.300781 23.015625 -15.125 L 23.015625 -38.140625 C 23.015625 -39.835938 22.894531 -41.128906 22.65625 -42.015625 C 22.414062 -42.910156 21.894531 -43.578125 21.09375 -44.015625 C 20.289062 -44.453125 19.039062 -44.671875 17.34375 -44.671875 L 15.578125 -44.671875 L 15.578125 -8.078125 Z M 17.40625 -8.078125 "/></g></g></g><g fill="#ffffff" fill-opacity="1"><g transform="translate(337.652706, 275.317179)"><g><path d="M 17.9375 0.78125 C 12.894531 0.78125 9.144531 -0.550781 6.6875 -3.21875 C 4.226562 -5.894531 2.910156 -10.144531 2.734375 -15.96875 L 12.71875 -17.46875 C 12.757812 -14.125 13.160156 -11.722656 13.921875 -10.265625 C 14.679688 -8.804688 15.820312 -8.078125 17.34375 -8.078125 C 19.300781 -8.078125 20.28125 -9.363281 20.28125 -11.9375 C 20.28125 -13.976562 19.8125 -15.738281 18.875 -17.21875 C 17.9375 -18.695312 16.46875 -20.28125 14.46875 -21.96875 L 9.90625 -25.953125 C 7.644531 -27.859375 5.894531 -29.890625 4.65625 -32.046875 C 3.414062 -34.203125 2.796875 -36.753906 2.796875 -39.703125 C 2.796875 -44.140625 4.109375 -47.550781 6.734375 -49.9375 C 9.367188 -52.332031 12.992188 -53.53125 17.609375 -53.53125 C 22.609375 -53.53125 26.007812 -52.070312 27.8125 -49.15625 C 29.613281 -46.25 30.578125 -42.707031 30.703125 -38.53125 L 20.671875 -37.296875 C 20.578125 -40.035156 20.320312 -42 19.90625 -43.1875 C 19.5 -44.382812 18.601562 -44.984375 17.21875 -44.984375 C 16.21875 -44.984375 15.441406 -44.5625 14.890625 -43.71875 C 14.347656 -42.875 14.078125 -41.925781 14.078125 -40.875 C 14.078125 -39.09375 14.476562 -37.59375 15.28125 -36.375 C 16.09375 -35.164062 17.390625 -33.773438 19.171875 -32.203125 L 23.53125 -28.359375 C 26.144531 -26.140625 28.164062 -23.789062 29.59375 -21.3125 C 31.03125 -18.84375 31.75 -15.910156 31.75 -12.515625 C 31.75 -10.035156 31.171875 -7.785156 30.015625 -5.765625 C 28.867188 -3.742188 27.25 -2.144531 25.15625 -0.96875 C 23.070312 0.195312 20.664062 0.78125 17.9375 0.78125 Z M 17.9375 0.78125 "/></g></g></g><g fill="#ffffff" fill-opacity="1"><g transform="translate(122.933744, 299.839535)"><g><path d="M 3.5625 1.484375 C 2.46875 1.078125 1.796875 0.503906 1.546875 -0.234375 C 1.296875 -0.972656 1.375 -1.878906 1.78125 -2.953125 L 3.125 -6.578125 C 3.539062 -7.679688 4.082031 -8.425781 4.75 -8.8125 C 5.414062 -9.195312 6.296875 -9.1875 7.390625 -8.78125 C 8.429688 -8.394531 9.078125 -7.867188 9.328125 -7.203125 C 9.578125 -6.535156 9.53125 -5.742188 9.1875 -4.828125 L 8.859375 -3.96875 L 6.6875 -4.78125 L 7.0625 -5.765625 C 7.207031 -6.160156 7.273438 -6.472656 7.265625 -6.703125 C 7.265625 -6.941406 7.113281 -7.117188 6.8125 -7.234375 C 6.5 -7.347656 6.25 -7.3125 6.0625 -7.125 C 5.882812 -6.945312 5.722656 -6.664062 5.578125 -6.28125 L 3.828125 -1.578125 C 3.679688 -1.179688 3.617188 -0.859375 3.640625 -0.609375 C 3.660156 -0.367188 3.828125 -0.191406 4.140625 -0.078125 C 4.441406 0.0351562 4.671875 0.00390625 4.828125 -0.171875 C 4.992188 -0.347656 5.148438 -0.632812 5.296875 -1.03125 L 5.6875 -2.078125 L 7.859375 -1.265625 L 7.53125 -0.40625 C 7.1875 0.53125 6.695312 1.175781 6.0625 1.53125 C 5.4375 1.882812 4.601562 1.867188 3.5625 1.484375 Z M 3.5625 1.484375 "/></g></g></g><g fill="#ffffff" fill-opacity="1"><g transform="translate(134.223427, 303.884672)"><g><path d="M 3.640625 1.25 C 2.535156 0.925781 1.832031 0.410156 1.53125 -0.296875 C 1.226562 -1.015625 1.238281 -1.925781 1.5625 -3.03125 L 2.6875 -6.84375 C 3.019531 -7.945312 3.503906 -8.707031 4.140625 -9.125 C 4.785156 -9.550781 5.660156 -9.601562 6.765625 -9.28125 C 7.867188 -8.957031 8.570312 -8.4375 8.875 -7.71875 C 9.1875 -7.007812 9.179688 -6.109375 8.859375 -5.015625 L 7.734375 -1.203125 C 7.410156 -0.0976562 6.921875 0.664062 6.265625 1.09375 C 5.617188 1.519531 4.742188 1.570312 3.640625 1.25 Z M 4.125 -0.359375 C 4.445312 -0.265625 4.6875 -0.304688 4.84375 -0.484375 C 5.007812 -0.671875 5.144531 -0.953125 5.25 -1.328125 L 6.71875 -6.25 C 6.820312 -6.632812 6.851562 -6.945312 6.8125 -7.1875 C 6.78125 -7.425781 6.601562 -7.59375 6.28125 -7.6875 C 5.976562 -7.78125 5.742188 -7.734375 5.578125 -7.546875 C 5.421875 -7.359375 5.289062 -7.078125 5.1875 -6.703125 L 3.71875 -1.78125 C 3.613281 -1.40625 3.570312 -1.097656 3.59375 -0.859375 C 3.625 -0.617188 3.800781 -0.453125 4.125 -0.359375 Z M 4.125 -0.359375 "/></g></g></g><g fill="#ffffff" fill-opacity="1"><g transform="translate(146.057013, 307.221837)"><g><path d="M 3.109375 -10.25 L 4.71875 -9.890625 L 5.734375 -4.390625 L 6.859375 -9.40625 L 8.765625 -8.984375 L 6.4375 1.4375 L 4.859375 1.078125 L 3.953125 -4.796875 L 2.75 0.609375 L 0.78125 0.171875 Z M 3.109375 -10.25 "/></g></g></g><g fill="#ffffff" fill-opacity="1"><g transform="translate(157.758878, 309.664057)"><g><path d="M 3.546875 0.703125 C 2.535156 0.546875 1.828125 0.164062 1.421875 -0.4375 C 1.023438 -1.050781 0.898438 -1.945312 1.046875 -3.125 L 3.0625 -3.09375 C 2.976562 -2.425781 2.988281 -1.9375 3.09375 -1.625 C 3.207031 -1.3125 3.410156 -1.132812 3.703125 -1.09375 C 4.097656 -1.03125 4.335938 -1.25 4.421875 -1.75 C 4.484375 -2.164062 4.441406 -2.535156 4.296875 -2.859375 C 4.148438 -3.179688 3.90625 -3.539062 3.5625 -3.9375 L 2.78125 -4.875 C 2.382812 -5.332031 2.097656 -5.796875 1.921875 -6.265625 C 1.742188 -6.734375 1.695312 -7.257812 1.78125 -7.84375 C 1.914062 -8.726562 2.28125 -9.367188 2.875 -9.765625 C 3.476562 -10.160156 4.242188 -10.285156 5.171875 -10.140625 C 6.171875 -9.984375 6.800781 -9.585938 7.0625 -8.953125 C 7.332031 -8.316406 7.414062 -7.578125 7.3125 -6.734375 L 5.28125 -6.796875 C 5.351562 -7.347656 5.363281 -7.75 5.3125 -8 C 5.269531 -8.257812 5.109375 -8.410156 4.828125 -8.453125 C 4.628906 -8.484375 4.460938 -8.421875 4.328125 -8.265625 C 4.191406 -8.117188 4.109375 -7.941406 4.078125 -7.734375 C 4.015625 -7.367188 4.046875 -7.050781 4.171875 -6.78125 C 4.296875 -6.519531 4.507812 -6.203125 4.8125 -5.828125 L 5.5625 -4.953125 C 6.019531 -4.421875 6.351562 -3.882812 6.5625 -3.34375 C 6.78125 -2.800781 6.835938 -2.191406 6.734375 -1.515625 C 6.648438 -1.023438 6.460938 -0.59375 6.171875 -0.21875 C 5.878906 0.144531 5.503906 0.410156 5.046875 0.578125 C 4.597656 0.742188 4.097656 0.785156 3.546875 0.703125 Z M 3.546875 0.703125 "/></g></g></g><g fill="#ffffff" fill-opacity="1"><g transform="translate(168.965178, 311.238884)"><g><path d="M 2.5625 -8.734375 L 0.953125 -8.875 L 1.109375 -10.609375 L 6.65625 -10.109375 L 6.5 -8.375 L 4.921875 -8.515625 L 4.109375 0.375 L 1.75 0.15625 Z M 2.5625 -8.734375 "/></g></g></g><g fill="#ffffff" fill-opacity="1"><g transform="translate(179.354165, 312.078385)"><g><path d="M 1.078125 -10.65625 L 4.015625 -10.578125 C 5.179688 -10.546875 6.054688 -10.316406 6.640625 -9.890625 C 7.222656 -9.460938 7.5 -8.71875 7.46875 -7.65625 C 7.457031 -6.945312 7.351562 -6.378906 7.15625 -5.953125 C 6.957031 -5.535156 6.609375 -5.21875 6.109375 -5 L 7.421875 0.203125 L 4.984375 0.140625 L 3.9375 -4.671875 L 3.265625 -4.703125 L 3.140625 0.078125 L 0.796875 0.015625 Z M 3.984375 -6.03125 C 4.453125 -6.019531 4.78125 -6.132812 4.96875 -6.375 C 5.164062 -6.625 5.269531 -7 5.28125 -7.5 C 5.289062 -7.976562 5.210938 -8.34375 5.046875 -8.59375 C 4.890625 -8.84375 4.59375 -8.972656 4.15625 -8.984375 L 3.390625 -9.015625 L 3.3125 -6.0625 Z M 3.984375 -6.03125 "/></g></g></g><g fill="#ffffff" fill-opacity="1"><g transform="translate(191.838945, 312.249027)"><g><path d="M 3.875 -0.015625 C 3.070312 0.0234375 2.429688 -0.0703125 1.953125 -0.3125 C 1.484375 -0.5625 1.144531 -0.929688 0.9375 -1.421875 C 0.726562 -1.921875 0.609375 -2.5625 0.578125 -3.34375 L 0.25 -10.6875 L 2.578125 -10.78125 L 2.921875 -3.078125 C 2.941406 -2.648438 3.007812 -2.3125 3.125 -2.0625 C 3.25 -1.8125 3.476562 -1.695312 3.8125 -1.71875 C 4.144531 -1.726562 4.359375 -1.863281 4.453125 -2.125 C 4.546875 -2.382812 4.582031 -2.726562 4.5625 -3.15625 L 4.21875 -10.859375 L 6.5625 -10.96875 L 6.890625 -3.625 C 6.921875 -2.84375 6.847656 -2.191406 6.671875 -1.671875 C 6.503906 -1.160156 6.195312 -0.765625 5.75 -0.484375 C 5.300781 -0.203125 4.675781 -0.046875 3.875 -0.015625 Z M 3.875 -0.015625 "/></g></g></g><g fill="#ffffff" fill-opacity="1"><g transform="translate(204.140971, 311.549946)"><g><path d="M 3.828125 -0.28125 C 2.679688 -0.144531 1.832031 -0.351562 1.28125 -0.90625 C 0.726562 -1.457031 0.390625 -2.304688 0.265625 -3.453125 L -0.171875 -7.28125 C -0.304688 -8.445312 -0.171875 -9.351562 0.234375 -10 C 0.648438 -10.65625 1.4375 -11.050781 2.59375 -11.1875 C 3.707031 -11.3125 4.523438 -11.128906 5.046875 -10.640625 C 5.578125 -10.160156 5.894531 -9.4375 6 -8.46875 L 6.109375 -7.546875 L 3.8125 -7.28125 L 3.6875 -8.34375 C 3.644531 -8.757812 3.566406 -9.066406 3.453125 -9.265625 C 3.335938 -9.472656 3.113281 -9.5625 2.78125 -9.53125 C 2.457031 -9.488281 2.253906 -9.347656 2.171875 -9.109375 C 2.097656 -8.867188 2.085938 -8.546875 2.140625 -8.140625 L 2.703125 -3.140625 C 2.742188 -2.722656 2.832031 -2.40625 2.96875 -2.1875 C 3.101562 -1.976562 3.328125 -1.894531 3.640625 -1.9375 C 3.960938 -1.96875 4.15625 -2.097656 4.21875 -2.328125 C 4.289062 -2.566406 4.304688 -2.894531 4.265625 -3.3125 L 4.140625 -4.421875 L 6.4375 -4.6875 L 6.53125 -3.78125 C 6.644531 -2.78125 6.5 -1.976562 6.09375 -1.375 C 5.695312 -0.769531 4.941406 -0.40625 3.828125 -0.28125 Z M 3.828125 -0.28125 "/></g></g></g><g fill="#ffffff" fill-opacity="1"><g transform="translate(216.014459, 310.038786)"><g><path d="M 0.15625 -9.09375 L -1.421875 -8.8125 L -1.734375 -10.53125 L 3.75 -11.5 L 4.0625 -9.78125 L 2.5 -9.5 L 4.0625 -0.71875 L 1.71875 -0.3125 Z M 0.15625 -9.09375 "/></g></g></g><g fill="#ffffff" fill-opacity="1"><g transform="translate(226.201641, 308.081428)"><g><path d="M -1.640625 -10.578125 L 0.65625 -11.109375 L 3.078125 -0.71875 L 0.78125 -0.1875 Z M -1.640625 -10.578125 "/></g></g></g><g fill="#ffffff" fill-opacity="1"><g transform="translate(234.462902, 306.073473)"><g><path d="M 3.734375 -0.9375 C 2.628906 -0.613281 1.753906 -0.664062 1.109375 -1.09375 C 0.460938 -1.53125 -0.0195312 -2.300781 -0.34375 -3.40625 L -1.46875 -7.21875 C -1.800781 -8.320312 -1.8125 -9.222656 -1.5 -9.921875 C -1.195312 -10.617188 -0.492188 -11.128906 0.609375 -11.453125 C 1.710938 -11.773438 2.585938 -11.726562 3.234375 -11.3125 C 3.878906 -10.894531 4.367188 -10.140625 4.703125 -9.046875 L 5.828125 -5.234375 C 6.148438 -4.128906 6.15625 -3.21875 5.84375 -2.5 C 5.539062 -1.78125 4.835938 -1.257812 3.734375 -0.9375 Z M 3.25 -2.546875 C 3.570312 -2.640625 3.75 -2.804688 3.78125 -3.046875 C 3.820312 -3.296875 3.789062 -3.609375 3.6875 -3.984375 L 2.21875 -8.90625 C 2.101562 -9.289062 1.960938 -9.570312 1.796875 -9.75 C 1.640625 -9.925781 1.398438 -9.96875 1.078125 -9.875 C 0.773438 -9.78125 0.609375 -9.613281 0.578125 -9.375 C 0.546875 -9.132812 0.582031 -8.828125 0.6875 -8.453125 L 2.15625 -3.53125 C 2.257812 -3.15625 2.382812 -2.875 2.53125 -2.6875 C 2.6875 -2.5 2.925781 -2.453125 3.25 -2.546875 Z M 3.25 -2.546875 "/></g></g></g><g fill="#ffffff" fill-opacity="1"><g transform="translate(246.203351, 302.42185)"><g><path d="M -2.984375 -10.28125 L -1.4375 -10.859375 L 2.40625 -6.8125 L 0.609375 -11.625 L 2.4375 -12.296875 L 6.171875 -2.296875 L 4.671875 -1.734375 L 0.703125 -6.171875 L 2.640625 -0.984375 L 0.75 -0.28125 Z M -2.984375 -10.28125 "/></g></g></g><path stroke-linecap="butt" transform="matrix(0.75, 0, 0, 0.75, 158.552353, 285.060392)" fill="none" stroke-linejoin="miter" d="M -0.00209605 1.497603 L 77.195826 1.497603 " stroke="#ffffff" stroke-width="3" stroke-opacity="1" stroke-miterlimit="4"/></svg>